<?xml version="1.0" encoding="UTF-8" standalone="no"?>
<svg xmlns:rdf="http://www.w3.org/1999/02/22-rdf-syntax-ns#" xmlns="http://www.w3.org/2000/svg" height="566.34" width="346.04" version="1.1" xmlns:cc="http://creativecommons.org/ns#" xmlns:xlink="http://www.w3.org/1999/xlink" viewBox="0 -5 97.658904 165.8346" xmlns:dc="http://purl.org/dc/elements/1.1/" id='svg8'>
 <defs>
<!--  <linearGradient id="linearGradient7838" y2="108.89" gradientUnits="userSpaceOnUse" x2="-216.4" gradientTransform="matrix(.85822 0 0 .85397 234.78 188.65)" y1="-58.984" x1="-200.33"> -->
  <linearGradient id="linearGradient7838" gradientUnits="objectBoundingBox"  x1="0" y1="-200%" x2="0" y2="200%"
       gradientTransform="rotate(4)" >
   <stop stop-color="#ff195d" offset="0.0"> </stop>
   <stop stop-color="#ffe409" offset="0.2"> </stop>
   <stop stop-color="#ff195d" offset="0.4"> </stop>
   <stop stop-color="#ffe409" offset="0.6"> </stop>
   <stop stop-color="#ff195d" offset="0.8"> </stop>
   <stop stop-color="#ffe409" offset="1.0"> </stop>
<!--   <stop stop-color="#ffe409" offset="0.0"/>
   <stop stop-color="#ff195d" offset="1.0"/> -->
  </linearGradient>
  <linearGradient id="outlinefill">
   <stop stop-color="#000000" offset="0"/>
  </linearGradient>
 </defs>
 <g transform="translate(-11.216 -125.96)">
  <path id="mainfill" d="m61.002 125.96-0.13746 0.33362c-0.1538 0.37529-0.30787 0.68417-0.45902 0.93777-0.15116 0.25359-0.29938 0.45172-0.44218 0.60589-0.14278 0.15419-0.28023 0.26456-0.40892 0.34157-0.12867 0.077-0.24861 0.12088-0.35744 0.14298-0.21767 0.0442-0.39802 0.005-0.52376-0.0454-0.12576-0.0503-0.19693-0.11165-0.19693-0.11165l-0.0749 0.0874-0.00043 0.00044-0.0723 0.0843s0.0205 0.0145 0.0293 0.0212c-0.50914 1.2742-1.0628 2.5426-1.6742 3.8543-0.61134 1.3117-1.2804 2.6667-2.021 4.1147-1.0128 1.9792-2.1056 3.9934-3.289 6.0277-0.5917 1.0171-1.2061 2.0392-1.8445 3.0644-0.63843 1.0252-1.3007 2.0538-1.9886 3.0834-0.45814 0.68549-0.92588 1.3666-1.4014 2.0441-0.75702 0.39585-1.3729 0.67231-1.8689 0.86362-0.49606 0.19131-0.87234 0.29747-1.1513 0.35215-0.29186 0.0572-0.4776 0.0595-0.58675 0.0499-0.05458-0.005-0.08953-0.0125-0.10912-0.0181-0.01956-0.005-0.01682-0.005-0.01682-0.005l-0.05501 0.10063c-0.62837 0.20062-1.2629 0.42876-1.9017 0.6849-0.6388 0.25613-1.2819 0.54013-1.927 0.85258-0.64511 0.31246-1.2926 0.65334-1.9399 1.0229-0.64731 0.36959-1.2945 0.76792-1.9399 1.1955-0.64538 0.42756-1.2889 0.88435-1.9283 1.3707-0.63938 0.48632-1.2747 1.0022-1.9039 1.5481-0.62921 0.54593-1.2522 1.1218-1.8671 1.7281-0.61496 0.60633-1.2217 1.2433-1.8183 1.9108-0.76648 0.85816-1.4922 1.741-2.1767 2.6416-0.68444 0.90067-1.3275 1.8192-1.9288 2.7488-1.0011 1.9976-1.937 3.928-2.7869 5.7479-0.84995 1.8199-1.614 3.5292-2.272 5.0846l-0.10908-0.0322-0.77789 2.5984 0.10688 0.0322v0.00044c-0.000446 0.002-0.0125 0.0908-0.01289 0.0936-0.01614 0.11989-0.03226 0.24037-0.04832 0.36098-0.06024 0.45122-0.12044 0.9067-0.18096 1.3676-0.20879 1.5899-0.4188 3.2319-0.63064 4.9293-0.60015 4.809-1.2114 10.032-1.8033 15.52-0.15743 1.4573-0.34569 2.9351-0.58542 4.417-0.23972 1.4819-0.53091 2.9678-0.89363 4.4412-0.35893 1.4632-0.64924 2.9442-0.8879 4.4408-0.23864 1.4966-0.42562 3.009-0.57744 4.5357-0.08265 0.82137-0.15727 1.6492-0.21553 2.4814-0.05827 0.83225-0.10045 1.6691-0.11842 2.5084-0.01793 0.83925-0.0116 1.681 0.02661 2.5234 0.03819 0.84238 0.10843 1.6853 0.21865 2.5269 0.01673 0.12786 0.03458 0.25574 0.05321 0.3835 0.10312 0.68167 0.2736 1.3256 0.44261 1.9457 0.16901 0.62013 0.33653 1.2165 0.43418 1.8036 0.01631 0.0359-0.0061 0.15223-0.0094 0.34288-0.01595 0.29823-0.03838 0.60289-0.05768 0.91394-0.06282 1.0123-0.09679 2.0268-0.08869 3.0428 0.0068 0.83514 0.04068 1.6671 0.10112 2.4947 0.06041 0.82755 0.14748 1.6505 0.26034 2.4673 0.11285 0.8168 0.2516 1.6274 0.41556 2.4302 0.16394 0.80285 0.35307 1.5981 0.56677 2.3839 0.31965 1.1743 0.69318 2.3219 1.1145 3.4404 0.42138 1.1184 0.8903 2.2075 1.4015 3.2647 0.51116 1.0572 1.0643 2.0826 1.6534 3.0732 0.58906 0.99062 1.2143 1.9467 1.8693 2.8654 0.50568 0.7088 1.0277 1.3951 1.5638 2.0595 0.53603 0.66441 1.0857 1.3071 1.6463 1.928 0.56057 0.62093 1.1322 1.2204 1.7115 1.7987 0.57931 0.57837 1.1662 1.1353 1.7585 1.6721 1.1844 1.0735 2.3891 2.0646 3.5906 2.977 1.2014 0.91246 2.3999 1.7465 3.5719 2.5053 1.6162 1.8331 3.64 4.0949 5.6275 6.4293 0.35294 0.41855 0.7148 0.88566 1.1163 1.3482 0.40148 0.46249 0.84261 0.92037 1.3544 1.3212 0.19512 0.14123 0.3974 0.2601 0.60406 0.36009 0.20663 0.10002 0.41742 0.18106 0.6293 0.24758 0.42378 0.13303 0.85202 0.20685 1.2591 0.25199 1.3174 0.17474 2.6432 0.31719 3.9547 0.48585 0.41781 0.0536 0.83373 0.10995 1.248 0.17079 0.56441 0.082 1.1262 0.13999 1.684 0.1752 0.55771 0.0352 1.1113 0.0472 1.6591 0.0374 0.54788-0.0103 1.0901-0.0411 1.625-0.094 0.53487-0.0528 1.0624-0.12696 1.5811-0.22109 0.51869-0.0942 1.0285-0.20869 1.5278-0.34244 0.49937-0.13378 0.98841-0.28694 1.4653-0.45851 0.47692-0.17156 0.94176-0.36124 1.393-0.56881 0.45126-0.20762 0.88894-0.43292 1.3114-0.67477 1.4558-1.1593 2.7972-2.2468 3.9817-3.2594 1.1746-0.16871 2.4162-0.40642 3.7001-0.72729 0.64196-0.1604 1.2946-0.3417 1.9545-0.54542 0.65987-0.20375 1.3269-0.42994 1.9984-0.68048 0.67154-0.25055 1.3472-0.52566 2.0241-0.82656 0.67692-0.30088 1.3552-0.62758 2.0312-0.98233 0.67606-0.35473 1.3503-0.73746 2.0192-1.1496 0.66892-0.41207 1.3327-0.85354 1.9882-1.3265 0.5943-0.43143 1.1752-0.88404 1.7416-1.357 0.56634-0.47297 1.1181-0.96628 1.6538-1.4788 0.5365-0.51351 1.0528-1.0426 1.5487-1.5852 0.49586-0.54251 0.97085-1.0984 1.425-1.6664 0.45409-0.56793 0.8873-1.1476 1.2986-1.7374 0.41124-0.5898 0.80089-1.1898 1.1682-1.7978 0.85015-2.2529 1.6587-4.3796 2.3931-6.3785 0.73439-1.999 1.3946-3.8702 1.9474-5.6133 0.28184 0.28779 0.60664 0.54321 0.99477 0.74668 0.19405 0.1017 0.40376 0.19064 0.63199 0.26389 0.2282 0.0733 0.47496 0.13096 0.7424 0.17078 0.38493 0.0495 0.78485 0.025 1.177-0.071 0.39219-0.096 0.77669-0.26387 1.1296-0.50132 0.36547-0.2472 0.69104-0.54043 0.98102-0.86361 0.28999-0.32318 0.54438-0.67629 0.76769-1.0428 0.3294-0.53228 0.60509-1.0916 0.83954-1.6641 0.12836-0.31395 0.24385-0.63052 0.3486-0.94746 0.30954-0.93369 0.53368-1.8708 0.6914-2.7859 0.15773-0.91509 0.24905-1.8081 0.29271-2.654 0.0348-0.66918 0.0384-1.3048 0.0133-1.9029-0.008-0.18585-0.0182-0.36746-0.0319-0.54499-0.003-0.0488-0.008-0.0973-0.0118-0.14563-0.00069-0.0103-0.002-0.0203-0.002-0.0304l0.0634 0.0798 0.65018-0.51544-0.0714-0.0874v-0.00045c0.37934-0.7056 0.78215-1.4892 1.1899-2.334 0.40773-0.84477 0.82063-1.7505 1.2196-2.7012 0.39899-0.95066 0.78417-1.9463 1.1372-2.9695 0.35295-1.0232 0.67355-2.0742 0.94331-3.1367 0.24172-0.9542 0.44266-1.9141 0.59606-2.8773 0.085-0.50225 0.15971-1.0179 0.18715-1.5419 0.0275-0.52398 0.008-1.0563-0.0971-1.5913-0.0244-0.143-0.064-0.29419-0.12416-0.44703-0.0602-0.15284-0.14105-0.30734-0.2475-0.45675-0.0838-0.11459-0.18808-0.21353-0.30822-0.29301-0.12018-0.0796-0.25625-0.13951-0.40403-0.17564-0.32019-0.0441-0.60376-0.002-0.8493 0.0812-0.24552 0.0844-0.45302 0.21215-0.62001 0.34246-0.2491 0.17113-0.47584 0.35891-0.68475 0.55293-0.20892 0.19404-0.40004 0.39434-0.57699 0.59135-0.11637 0.14785-0.22376 0.28908-0.33575 0.43379 0.38005-1.463 0.73553-2.9469 1.0622-4.45 0.32663-1.5031 0.6244-3.0256 0.88921-4.5648s0.49687-3.0952 0.69141-4.6663 0.35162-3.157 0.46744-4.7559c0.0779-1.0704 0.13529-2.1447 0.17119-3.2215 0.0384-1.1566 0.0514-2.3091 0.0382-3.4558s-0.0527-2.2873-0.11931-3.4214c-0.0666-1.134-0.16034-2.2612-0.28207-3.3799s-0.27151-2.2293-0.45015-3.33c-0.17863-1.1007-0.38579-2.1917-0.62312-3.2718-0.23731-1.0801-0.50448-2.1493-0.80228-3.206-0.29779-1.0568-0.62631-2.1011-0.98634-3.1319-0.36001-1.0308-0.75169-2.0477-1.1757-3.0498-0.32596-0.76949-0.66854-1.5225-1.0267-2.259-0.35819-0.7365-0.73173-1.4567-1.1203-2.1593-0.38854-0.70257-0.7919-1.3879-1.209-2.0556-0.41708-0.66771-0.84815-1.3178-1.2919-1.9497-0.44377-0.63187-0.90046-1.2456-1.3691-1.8407-0.46862-0.59509-0.94884-1.1712-1.4405-1.7286-0.49163-0.55735-0.99465-1.0956-1.5074-1.6143-0.51279-0.51866-1.0356-1.0179-1.5678-1.4969-0.67748-0.60975-1.3633-1.1823-2.0587-1.7158-0.69545-0.53342-1.4006-1.0277-2.1164-1.481-0.40841-0.25864-0.81793-0.5025-1.2334-0.72639-0.11043-0.0595-0.22122-0.11743-0.33263-0.17298-0.0287-0.0143-0.0575-0.0284-0.0865-0.0424-0.008-0.003-0.0147-0.008-0.0222-0.011-0.002-0.00088-0.005-0.003-0.008-0.003h-0.00045l0.0168-0.11296s-0.90859-0.1305-1.9665-0.43997c-0.31935-0.0934-0.65142-0.20421-0.97524-0.33186-0.32383-0.12765-0.63939-0.27217-0.92605-0.43336-0.28492-0.43299-0.57116-0.86432-0.85239-1.3018-0.88778-1.3801-1.6907-2.6888-2.4193-3.9492-0.72856-1.2604-1.383-2.4726-1.974-3.6593-0.59106-1.1866-1.1187-2.3477-1.5939-3.5066-0.47525-1.1588-0.89791-2.3154-1.279-3.4924 0.009-0.005 0.0165-0.009 0.0249-0.0145l-0.0612-0.0953-0.0611-0.0949c-0.36778 0.23476-0.71189 0.38555-1.0356 0.46778-0.32367 0.0822-0.62694 0.0959-0.91405 0.056-0.2871-0.0399-0.55948-0.13395-0.81958-0.2714-0.26011-0.13744-0.50799-0.31824-0.74595-0.53087-0.23798-0.21265-0.46477-0.45677-0.68211-0.71888-0.21735-0.26212-0.42547-0.54244-0.62578-0.82744-0.4006-0.57001-0.7704-1.159-1.1243-1.661l-0.0368-0.0534-0.0669 0.007c-0.36107 0.0345-0.70713 0.0308-1.0391-0.007-0.332-0.0377-0.65011-0.1096-0.9544-0.2105-0.30418-0.10102-0.59475-0.23137-0.87267-0.38625-0.27795-0.15488-0.54313-0.33426-0.79609-0.53397-0.25297-0.19972-0.49372-0.41984-0.72201-0.65533-0.22831-0.23551-0.44422-0.48659-0.64841-0.74846-0.40832-0.52372-0.76884-1.0906-1.0839-1.6632-0.31506-0.5727-0.58473-1.1502-0.81161-1.6942-0.22688-0.54398-0.41118-1.0544-0.55614-1.4934-0.28996-0.87792-0.42221-1.4695-0.42221-1.4695z" fill="url(#linearGradient7838)"/>
  <g fill-rule="evenodd" fill="url(#outlinefill)">
   <g>
    <path d="m60.971 126.14c-0.0792 1.3052 0.19928 2.6221 0.5823 4.0242 0.48699 1.7941 1.1506 3.5758 1.943 5.4567 1.8499 4.3933 4.1421 8.7179 6.7691 13.23 0.23778 0.40847 0.47741 0.81592 0.71846 1.2228 2.5051 4.2268 5.1246 8.2662 7.731 12.018 2.6192 3.7708 4.9847 6.9414 7.3244 9.735-2.1594-3.3353-3.9014-6.1376-6.4737-10.288-2.365-3.8158-4.7561-7.7123-7.2064-11.836-0.30484-0.51275-0.6087-1.0252-0.91138-1.5384-2.6829-4.5501-5.0216-8.6258-7.1492-12.908-0.90473-1.8217-1.6852-3.5025-2.3301-5.225-0.50583-1.3583-0.91591-2.5861-0.99742-3.8922z"/>
    <path d="m58.402 128.06c-1.0276 2.5852-2.2371 5.1399-3.7391 8.0767-2.0255 3.9584-4.3706 8.0572-7.1221 12.175-1.0215 1.5284-2.0853 3.0389-3.1958 4.5224-2.2805 3.0476-4.6889 5.8894-7.2583 8.5104-4.7313 4.8247-9.4282 8.2949-13.993 10.824 4.8204-2.0108 9.8972-5.2602 14.833-9.9809 2.6023-2.4879 5.0243-5.2366 7.2672-8.2015 1.2214-1.6153 2.3719-3.2716 3.4553-4.954 2.7206-4.2238 4.9356-8.4782 6.7074-12.572 1.3108-3.0273 2.3211-5.7511 3.0451-8.401z"/>
    <path d="m60.328 128.38c-0.29196 4.1547 0.56741 8.695 2.4605 13.781 0.98321 2.6482 2.1788 5.2603 3.548 7.8375 0.97143 1.8275 2.0116 3.6028 3.0921 5.3203 3.6875 5.073 7.221 9.6917 10.188 13.316-2.437-4.0273-5.5924-8.8831-9.1085-14.017-0.96493-1.6357-1.9109-3.2997-2.8189-4.9946-1.4103-2.6311-2.6792-5.2443-3.7888-7.8957-2.0836-4.9913-3.2705-9.1706-3.5719-13.348z"/>
    <path d="m58.723 129.98c-0.0725 0.97395-0.34791 1.8962-0.68033 2.9152-0.4332 1.3202-0.95699 2.6232-1.5633 4.0242-1.4442 3.3356-3.108 6.6261-5.0461 10.156-0.39657 0.7218-0.7987 1.4414-1.2072 2.1593-1.7296 3.0413-3.4919 5.9035-5.3481 8.6486-2.461 3.6344-4.5682 6.3887-7.0095 8.852 2.7457-2.0454 5.2725-4.7456 7.9049-8.2152 1.9646-2.5863 3.7966-5.3783 5.494-8.3423 0.46699-0.81588 0.92-1.6375 1.3589-2.4638 1.8987-3.5725 3.4579-7.0515 4.6283-10.498 0.49582-1.4594 0.89835-2.8442 1.177-4.2184 0.21587-1.0579 0.36571-2.0468 0.29138-3.0172z"/>
    <path d="m58.966 132.78c-0.28442 3.1505-1.085 6.0594-2.3022 9.8794-0.72541 2.2665-1.521 4.5145-2.3904 6.8388-0.49567 1.3262-1.0006 2.6384-1.5088 3.943-2.0253 4.6351-3.769 9.0064-5.0164 12.575 1.8853-3.3058 4.0462-7.499 6.2161-12.061 0.52176-1.2212 1.0248-2.4646 1.4995-3.725 0.91296-2.4266 1.6944-4.8456 2.3115-7.2536 0.99344-3.8593 1.4751-7.1298 1.1908-10.197z"/>
    <path d="m68.999 135.09c0.6265 5.3357 2.9152 11.101 6.8387 17.19 1.0505 1.6291 2.1629 3.1983 3.2956 4.6985 3.18 3.7439 6.2331 7.1098 8.8318 9.7359-2.0477-3.0882-4.7015-6.7441-7.6863-10.588-1.0012-1.4641-2.011-2.9596-2.9954-4.4783-4.06-6.2592-6.5534-11.214-8.2845-16.558z"/>
    <path d="m59.711 135.97c-0.28426 3.0668 0.19779 6.3374 1.1912 10.197 0.61712 2.408 1.3986 4.827 2.3115 7.2536 0.47464 1.2604 0.97726 2.5038 1.499 3.725 2.1699 4.5622 4.3308 8.755 6.216 12.061-1.2474-3.5689-2.9907-7.9397-5.016-12.575-0.50815-1.3046-1.0136-2.6173-1.5092-3.9434-0.86952-2.3243-1.665-4.5718-2.3905-6.8384-1.2172-3.8199-2.0178-6.7289-2.3022-9.8794z"/>
    <path d="m75.1 138.61c0.55225 4.7426 2.5699 9.8673 6.0285 15.28 0.92598 1.448 1.9064 2.8425 2.9049 4.176 2.8031 3.3278 5.4944 6.3196 7.7852 8.6539-1.805-2.745-4.1443-5.9944-6.7753-9.4111-0.88257-1.3014-1.7729-2.6311-2.6406-3.981-3.5788-5.5636-5.7767-9.967-7.3026-14.717z"/>
    <path d="m42.353 151.7c-5.0272 1.6049-10.454 4.9732-15.227 10.314-1.533 1.7163-2.903 3.5312-4.1055 5.3905-2.0023 3.9953-3.743 7.7218-5.059 10.833 1.8457-2.8525 3.9416-6.3589 6.1021-10.209 1.2137-1.6904 2.5269-3.3523 3.9445-4.9549 4.7324-5.353 9.5739-8.8779 14.345-11.374z"/>
    <path d="m87.107 155.95c0.002 0.002 0.005 0.003 0.007 0.004 0.007 0.004 0.0138 0.009 0.0208 0.0128 0.0273 0.0168 0.0545 0.034 0.0816 0.0512 0.10491 0.0666 0.20879 0.1355 0.31222 0.20564 0.38937 0.26407 0.76963 0.5448 1.1482 0.83936 1.3293 1.0343 2.5963 2.2063 3.826 3.5074 3.8741 4.0982 7.0924 9.2557 9.3627 15.282 2.8863 7.6516 3.9744 16.054 3.7675 24.794-0.0303 1.2932-0.0889 2.5853-0.17297 3.8728-1.1448 17.441-6.8099 33.962-11.342 46.088 3.6773-7.3908 7.6053-16.595 10.334-26.868 0.27585-0.22925 0.5571-0.46698 0.84309-0.71271 0.41164-0.30682 0.84983-0.61358 1.3079-0.82787 0.35451-0.13884 0.68597-0.29316 0.84398-0.17784 0.0402 0.013 0.0853 0.0701 0.11841 0.1289 0.0717 0.1093 0.0933 0.287 0.12464 0.50175 0.0971 0.84936-0.1048 1.7376-0.29892 2.7312-0.17951 0.87041-0.38021 1.7373-0.59872 2.6107-1.0582 4.2379-2.4639 8.4405-3.2021 11.641 1.5174-2.8225 3.411-6.8917 4.49-11.142 0.24179-0.9542 0.44269-1.9141 0.59606-2.8773 0.16995-1.0045 0.29941-2.0631 0.09-3.1332-0.0488-0.28602-0.15874-0.60498-0.37164-0.90378-0.16773-0.22926-0.41672-0.39637-0.71226-0.46865-0.6404-0.0883-1.1353 0.16305-1.4693 0.42364-0.49822 0.34229-0.90779 0.75029-1.2618 1.1443-0.11636 0.14784-0.22375 0.28909-0.33572 0.4338 1.5201-5.852 2.647-12.042 3.1102-18.437 0.0779-1.0704 0.13528-2.1447 0.17119-3.2215 0.30696-9.2532-1.0087-18.23-4.4008-26.247-2.6076-6.1558-6.2757-11.272-10.533-15.104-1.3549-1.2195-2.7434-2.2901-4.1751-3.1968-0.40841-0.25863-0.81792-0.50249-1.2334-0.72637-0.11043-0.0595-0.22121-0.11745-0.33262-0.173-0.0287-0.0143-0.0576-0.0284-0.0865-0.0423-0.008-0.003-0.0147-0.008-0.0222-0.011-0.002-0.00088-0.005-0.003-0.008-0.003z"/>
    <path d="m41.546 166.18c2.5414 1.1584 5.7734 2.0224 8.83 3.109-0.00018-0.00007 0.0627 0.023 0.0626 0.023 3.2716 1.1904 5.8897 2.3985 7.9129 4.5467-1.1716-2.73-3.9979-4.7871-7.4029-5.9677-0.022-0.008-0.0439-0.0154-0.0661-0.023-3.1648-1.107-6.6459-1.473-9.3365-1.688z"/>
    <path d="m88.756 167.61c0.005 0.005 0.01 0.01 0.0142 0.0151 0.0134 0.0143 0.0271 0.0288 0.0403 0.0432 0.0516 0.0563 0.10261 0.11315 0.15346 0.17078 0.19346 0.21938 0.38219 0.445 0.57078 0.67695 0.67719 0.8329 1.3257 1.7192 1.9709 2.6716 2.0672 3.0515 3.913 6.5222 5.4874 10.467 1.542 3.8575 2.6979 7.9164 3.4788 12.171 1.9984 10.876 1.2352 21.303 0.0194 29.456 2.08-7.908 3.34-18.346 1.4019-29.28-0.79814-4.4982-2.0883-8.7841-3.8562-12.782-1.756-3.9653-3.8554-7.3979-6.1832-10.287-0.72953-0.90533-1.4654-1.7374-2.2255-2.5-0.21214-0.21284-0.42422-0.41857-0.64041-0.61649-0.0568-0.052-0.11414-0.10356-0.17164-0.15402-0.0148-0.013-0.0295-0.0259-0.0443-0.0388-0.005-0.004-0.0107-0.009-0.0159-0.0132z"/>
    <path d="m36.661 168.9c-0.32353-0.0008-0.64232 0.008-0.95574 0.0251-0.41465 0.023-0.81665 0.061-1.2054 0.11605-0.11094 0.0157-0.22031 0.0327-0.32864 0.0516-0.029 0.005-0.05775 0.0104-0.08648 0.0159-0.01031 0.002-0.02119 0.003-0.03149 0.006 0.01031 0.002 0.02112 0.003 0.03149 0.005 0.02883 0.004 0.05759 0.009 0.08648 0.0141 0.10821 0.0183 0.21644 0.0374 0.32598 0.0574 0.38532 0.0701 0.7711 0.14561 1.1726 0.22683 1.2115 0.2452 2.4631 0.52546 3.7458 0.8773 0.69316 0.19534 1.3974 0.41133 2.0884 0.65136 2.6731 0.92699 4.7515 2.0659 6.4023 3.8137-0.95281-2.2146-3.1514-4.0157-5.9868-4.9995-0.74304-0.25741-1.4986-0.44817-2.2472-0.5812-1.0288-0.18971-2.0408-0.27722-3.0114-0.27978z"/>
   </g>
   <path d="m41.965 220.96c-0.60751-1.1023-1.5007-2.0252-2.4609-2.8388-1.2374-1.0485-2.6513-1.8988-4.1827-2.4334-1.67-0.58298-3.4964-0.75487-5.2252-0.38069-2.1489 0.4651-4.0582 1.7406-5.5886 3.3192h0.000002c2.7003-2.0913 6.2809-3.0928 9.618-2.3658 3.0216 0.65817 5.7258 2.4421 7.8394 4.6995z"/>
   <g>
    <path d="m17.185 180.8c-0.00088 0.008-0.0034 0.0251-0.0042 0.0327-0.000455 0.002-0.0125 0.0912-0.01289 0.094-0.01614 0.11989-0.03227 0.23993-0.04831 0.36054-0.06024 0.45122-0.12043 0.9067-0.18095 1.3676-0.20879 1.59-0.41881 3.2319-0.63065 4.9293-0.60016 4.809-1.2114 10.032-1.8033 15.52-0.31487 2.9146-0.7536 5.9112-1.4791 8.8582-0.71783 2.9264-1.1617 5.9236-1.4653 8.9769-0.33074 3.2854-0.52965 6.6731-0.08871 10.04 0.01673 0.12786 0.03458 0.25615 0.05321 0.38393 0.20626 1.3633 0.68152 2.5747 0.8768 3.7488 0.01631 0.0359-0.0061 0.15268-0.0094 0.34333-0.01595 0.29822-0.03838 0.60244-0.05768 0.91349-0.06282 1.0123-0.09676 2.0268-0.08871 3.0428 0.02694 3.3406 0.48892 6.6331 1.3438 9.7761 1.2785 4.6972 3.4185 8.9692 6.0387 12.644 4.0455 5.6705 9.1624 9.898 13.85 12.933-4.5137-3.3189-9.39-7.7394-13.167-13.4-2.4595-3.6835-4.4459-7.898-5.6089-12.467-0.78071-3.0648-1.1901-6.2607-1.1926-9.4915-0.00088-0.98174 0.03838-1.9667 0.10421-2.9554 0.02008-0.30145 0.04436-0.60987 0.06256-0.92497 0.01476-0.1317 0.03253-0.34204-0.0042-0.62488-0.20672-1.2245-0.6149-2.3304-0.81293-3.3998-0.02017-0.10866-0.03828-0.21674-0.05365-0.32479-0.49288-3.3198-0.3044-6.7421-0.0034-10.12 0.27351-3.0219 0.66872-5.9659 1.3216-8.8352 0.68882-3.033 1.0673-6.0842 1.3057-9.0298 0.44926-5.5496 0.8648-10.709 1.24-15.569 0.13145-1.7027 0.2575-3.3622 0.37653-4.9549 0.0042-0.0591 0.09802-1.3169 0.10245-1.376 0.009-0.12135 0.01768-0.24211 0.02661-0.36274-0.00088 0.0165 0.0086-0.11047 0.0068-0.094 0.000677-0.008 0.0018-0.0254 0.0026-0.0331z"/>
    <path d="m32.907 204.35c-0.26999-0.002-0.54092 0.002-0.81249 0.0124-0.08841 0.003-0.17667 0.008-0.26476 0.0124-4.186 0.21333-7.9776 1.6773-10.615 3.0785 2.9092-0.59434 6.8249-1.5438 10.68-1.714 0.03124-0.002 0.06231-0.003 0.09358-0.004 2.1047-0.0818 4.0778 0.0479 5.8737 0.68312 1.1594 0.40905 2.1582 0.99137 2.9413 1.7564 0.24344 0.2375 0.46146 0.48553 0.65061 0.75065 0.05442 0.0763 0.10586 0.15322 0.15345 0.23213 0.01289 0.0213 0.02524 0.0427 0.03724 0.0644 0.0042 0.008 0.0088 0.0159 0.01289 0.0239-0.0018-0.009-0.0034-0.018-0.0051-0.0269-0.0051-0.0245-0.0116-0.0489-0.0182-0.0732-0.02395-0.0902-0.05313-0.17975-0.08556-0.26919-0.11397-0.31314-0.27075-0.62343-0.4639-0.92629-0.62682-0.98085-1.6048-1.8355-2.8295-2.4422-1.6186-0.80108-3.4578-1.1416-5.3477-1.158z"/>
    <path d="m72.341 206.78c-0.13971 0.0008-0.27929 0.004-0.41821 0.009-1.4966 0.0542-2.879 0.31264-4.0904 0.70344-0.40509 0.13065-0.78529 0.27411-1.1416 0.43246-0.10266 0.0456-0.20304 0.0923-0.30069 0.14078-0.0262 0.013-0.0515 0.0259-0.0772 0.0393-0.009 0.005-0.0192 0.01-0.0284 0.0146 0.0103-0.002 0.0207-0.002 0.0311-0.004 0.0286-0.004 0.0575-0.007 0.0865-0.0101 0.10803-0.0121 0.21648-0.0225 0.32731-0.0327 0.38664-0.0355 0.77951-0.0629 1.1957-0.0852 1.248-0.0667 2.5717-0.0791 3.9822 0.01 0.99898 0.0638 2.0068 0.1865 3.0158 0.37379 3.2952 0.60955 5.9 1.7625 8.1444 3.0847-1.6002-1.9755-4.3121-3.7378-7.7616-4.4046-0.99082-0.19092-1.9867-0.27958-2.9648-0.2714z"/>
   </g>
   <path d="m41.555 221.84c-2.7515 0.86524-5.6491 1.3519-8.5264 1.1507-3.1123-0.21763-6.2085-1.4154-8.3864-3.6493h-0.000001c2.6269 2.0278 5.9223 3.104 9.2369 3.2639 2.5752 0.12421 5.1463-0.2669 7.6759-0.76526z"/>
   <path d="m30.973 213.04c-0.57538-0.008-1.1476 0.0252-1.7128 0.10326-2.3878 0.33275-4.2386 1.5379-5.3189 2.887 1.3943-1.0324 3.2458-1.832 5.4151-1.9845 1.0079-0.0727 2.0302-0.019 3.069 0.12665 0.80245 0.11215 1.6002 0.27728 2.3811 0.47219 1.6116 0.40502 3.1169 0.93632 4.4758 1.4713 0.49051 0.19319 0.94849 0.38148 1.3913 0.57237 0.13136 0.0566 0.25896 0.11265 0.3854 0.16945 0.03424 0.0154 0.06822 0.0308 0.10201 0.0463 0.0089 0.004 0.01776 0.008 0.0266 0.0124 0.0034 0.002 0.0068 0.003 0.0098 0.005-0.0026-0.002-0.0061-0.005-0.0086-0.007-0.0078-0.006-0.01494-0.012-0.02266-0.0181-0.02875-0.0235-0.05759-0.0472-0.08693-0.0706-0.10847-0.0863-0.22007-0.17191-0.33528-0.25727-0.38819-0.28762-0.80844-0.56983-1.2622-0.8473-1.2678-0.77557-2.7558-1.4894-4.4141-1.9982-0.76205-0.23514-1.5535-0.42298-2.3634-0.54192-0.57751-0.0846-1.156-0.13262-1.7314-0.14033z"/>
  </g>
  <path id="eyeR" d="m31.595 216.03c-1.7268 0.0496-3.4425 0.50833-5.0012 1.2882a4.5548 4.5548 0 0 0 -0.25356 1.4833 4.5548 4.5548 0 0 0 0.41782 1.8918c2.0553 1.0879 4.3594 1.7082 6.6873 1.8769a4.5548 4.5548 0 0 0 2.0042 -3.7687 4.5548 4.5548 0 0 0 -0.67469 -2.379c-0.21468-0.059-0.4307-0.11401-0.64878-0.16151-0.8343-0.18173-1.684-0.2553-2.5312-0.23096z" fill="#00f"/>
  <path d="m73.107 219.14c-0.4273-0.002-0.85583 0.0191-1.2854 0.0639-1.5218 0.15882-3.0221 0.60714-4.3408 1.383-0.93624 0.55083-1.8322 1.2572-2.3272 2.2242 1.7737-1.6662 4.06-2.824 6.4867-3.0063 4.5224-0.33978 8.8574 1.8323 12.7 4.241-3.117-2.7782-7.1026-4.8902-11.233-4.9058zm-7.7104 4.3629c2.1402 1.6405 4.8639 2.3663 7.5472 2.6332 3.5106 0.34914 7.1004-0.19845 10.369-1.5247-3.5694 1.0753-7.3644 1.4174-11.061 0.93706-2.3774-0.30894-4.7578-0.88481-6.8555-2.0456z" fill-rule="evenodd" fill="url(#outlinefill)"/>
  <path d="m74.022 216.78c-0.64477 0.0101-1.284 0.0664-1.9119 0.16813-1.6007 0.26308-3.0399 0.76864-4.2616 1.3972-0.41532 0.2136-0.80015 0.43835-1.1549 0.67606-0.1031 0.0691-0.20305 0.13897-0.2998 0.21051-0.026 0.0193-0.0518 0.0383-0.0772 0.0578-0.009 0.007-0.0181 0.0145-0.027 0.0216 0.0104-0.004 0.0213-0.009 0.0319-0.0132 0.0297-0.012 0.0599-0.0237 0.09-0.0353 0.112-0.0431 0.22505-0.084 0.34105-0.12488 0.40046-0.141 0.81494-0.27106 1.2542-0.3954 1.2947-0.36625 2.7128-0.65432 4.231-0.78242 1.1358-0.098 2.2879-0.0781 3.4477 0.0587 3.6148 0.42442 6.6551 1.8808 8.9981 3.4236-1.8177-2.1028-4.8769-4.0676-8.7161-4.5542-0.65031-0.0821-1.3004-0.11823-1.9452-0.10812z" fill-rule="evenodd" fill="url(#outlinefill)"/>
  <path id="eyeL" d="m72.485 219.77c-0.28111 0.002-0.56291 0.0135-0.84556 0.0347-1.39 0.10444-2.7331 0.53004-3.961 1.1868a4.2906 4.2906 0 0 0 -0.38806 1.7727 4.2906 4.2906 0 0 0 0.37648 1.7435c1.4767 0.51881 3.0305 0.83876 4.5845 1.0407 0.80019 0.10399 1.6049 0.16677 2.411 0.19459a4.2906 4.2906 0 0 0 1.2094 -2.9788 4.2906 4.2906 0 0 0 -1.0495 -2.8035c-0.77176-0.12652-1.5512-0.19678-2.3372-0.19072z" fill="#00f"/>
  <g fill-rule="evenodd" fill="url(#outlinefill)">
   <path d="m43.458 230.6c-1.5155 1.4756-3.6943 3.796-4.5645 6.6892-0.03819 0.12722-0.07423 0.25509-0.10733 0.38438-0.18079 0.67837-0.24419 1.4337-0.02085 2.1637 0.17883 0.5481 0.54461 1.0007 1.005 1.2912 0.96246 0.57624 2.0522 0.5659 2.9138 0.45233 0.56171-0.11897 1.0882-0.24105 1.5735-0.36452-0.50177-0.008-1.0368-0.005-1.5997 0.008-0.84208-0.0594-1.8242-0.18738-2.4632-0.70784-0.2959-0.22776-0.52043-0.56037-0.61026-0.91878-0.14434-0.51046-0.05365-1.0988 0.09136-1.699 0.02085-0.0821 0.04239-0.1638 0.06522-0.24537 0.71256-2.552 2.6837-5.3023 3.717-7.0533z"/>
   <path d="m58.783 232.87c0.86429 1.6433 2.5069 4.1154 2.8823 6.3609 0.003 0.0203 0.006 0.0406 0.01 0.0608 0.0785 0.51501 0.096 1.0158-0.0532 1.4382-0.1083 0.34449-0.33777 0.66513-0.62489 0.91217-0.59821 0.5352-1.5055 0.79094-2.3137 0.96159-0.52303 0.0614-1.0189 0.13201-1.4817 0.21137 0.46196 0.0891 0.96214 0.17034 1.495 0.24317 0.86646 0.0499 1.9237-0.046 2.8717-0.64607 0.4627-0.30421 0.85074-0.75051 1.0773-1.3032 0.24004-0.62217 0.27394-1.2776 0.18138-1.8879-0.01-0.0646-0.0212-0.12864-0.0337-0.19198-0.54138-2.7993-2.5834-4.8975-4.0101-6.1592z"/>
   <path d="m45.183 237.95c-0.60745-0.0138-1.229 0.15219-1.6742 0.57369-0.59991 0.65626-0.30018 1.4872 0.0164 1.8989-0.13679-0.50411-0.14788-1.2758 0.3029-1.5322 0.39486-0.30043 0.97078-0.3337 1.5607-0.30008h0.003c0.60931 0.0624 1.1883 0.21338 1.5877 0.57059 0.43792 0.33385 0.45953 1.0499 0.29271 1.549 0.34809-0.40423 0.59219-1.2084 0.0581-1.8835-0.45001-0.52068-1.1326-0.79597-1.8268-0.85524-0.0204-0.002-0.0409-0.004-0.0612-0.005-0.0857-0.009-0.17221-0.0144-0.259-0.0163z"/>
   <path d="m54.185 239.1c-0.45589 0.0129-0.90496 0.13869-1.2706 0.41792-0.66627 0.58946-0.45645 1.4478-0.18537 1.8905-0.0825-0.5157-0.0116-1.284 0.46389-1.4916 0.42457-0.2572 1.0007-0.23009 1.5837-0.13459l0.003 0.00044c0.59926 0.12605 1.1594 0.33708 1.5185 0.73431 0.4 0.37805 0.34532 1.0923 0.1264 1.571 0.38909-0.36536 0.71703-1.1393 0.25767-1.8667-0.39216-0.56511-1.0417-0.9108-1.7256-1.0428-0.0202-0.004-0.0402-0.008-0.0603-0.0116-0.16841-0.0361-0.34153-0.0587-0.51535-0.0657-0.0651-0.002-0.13045-0.004-0.19557-0.002z"/>
   <path d="m102.94 240.13c-0.0008 0.005-0.002 0.009-0.003 0.0131-0.003 0.0129-0.007 0.0247-0.0102 0.0371-0.0127 0.0468-0.0252 0.0931-0.0381 0.14031-0.029 0.1066-0.11419 0.41726-0.14325 0.52384-0.10573 0.38644-0.38831 1.4286-0.49405 1.8151-0.43895 1.6088-0.91725 3.3878-1.5451 5.1124-0.0935 0.25606-0.18947 0.51028-0.28962 0.76124-0.22592 0.56717-0.47057 1.1127-0.75438 1.6297-0.37003 0.66166-0.76168 1.2555-1.2711 1.6933-0.45913 0.40068-1.0294 0.66569-1.6099 0.70652-0.83824 0.0758-1.7487-0.26573-2.472-0.60812 0.0008-0.004 0.002-0.008 0.003-0.0103-0.002 0.004-0.002 0.006-0.004 0.0103v0.00045c-1.6266 3.2978-3.4447 7.2759-5.3149 11.628-1.4683 2.1949-3.1873 4.2704-5.1455 6.1641-1.0882 1.0529-2.2346 2.0342-3.4313 2.9386-4.952 3.7654-10.419 5.933-14.929 7.2916 4.6985-0.67484 10.471-2.4543 15.716-6.2382 1.1886-0.86288 2.324-1.8108 3.3954-2.8358 2.146-2.054 3.9713-4.3544 5.4404-6.7867 1.7003-4.5058 3.1643-8.6738 4.27-12.16 0.56368 0.57558 1.37 1.1902 2.4397 1.3495 0.76987 0.0989 1.6009-0.0974 2.3066-0.57236 0.73094-0.49443 1.3021-1.1734 1.7487-1.9064 0.32939-0.5323 0.6051-1.0916 0.83955-1.6642 0.12835-0.31396 0.24383-0.63052 0.34858-0.94748 0.61912-1.8673 0.89682-3.748 0.98412-5.4399 0.0348-0.66917 0.0383-1.3048 0.0133-1.9029-0.008-0.18585-0.0182-0.36748-0.0319-0.54502-0.003-0.0488-0.008-0.0973-0.0118-0.14562-0.0008-0.0129-0.002-0.0253-0.003-0.0379-0.00045-0.005-0.0008-0.009-0.002-0.0137z"/>
   <path d="m46.976 253.79c-0.64838 0.0116-1.2978 0.0866-1.9376 0.2608-2.3193 0.65781-4.6549 0.82837-6.7753 0.73829-0.76092-0.0325-1.4845-0.0972-2.1802-0.19416-0.208-0.029-0.41149-0.0604-0.61247-0.0967-0.05484-0.0103-0.10946-0.0201-0.16366-0.0309-0.01966-0.004-0.03948-0.009-0.05895-0.0129 0.01854 0.008 0.03759 0.0152 0.05631 0.0226 0.05158 0.0201 0.10364 0.0397 0.15611 0.0587 0.1925 0.07 0.3895 0.13493 0.59162 0.19682 0.67729 0.2074 1.3984 0.37596 2.1634 0.5044 2.1468 0.36107 4.5885 0.38812 7.0809-0.19021 1.079-0.25758 2.2464-0.16015 3.4597 0 0.5434 0.0756 1.0954 0.15656 1.6525 0.22684 0.87511 0.11008 1.7613 0.19365 2.6632 0.19109 1.4612-0.0258 3.017 0.53984 4.5192 0.93158 2.9876 0.78908 5.9117 0.81881 8.2393 0.62576-2.3222-0.21511-5.1999-0.58192-7.9705-1.5141-1.4272-0.48468-3.0316-1.1308-4.7814-1.1739-0.75916-0.0116-1.5246-0.0862-2.3044-0.18179-0.63738-0.0779-1.2306-0.1613-1.868-0.23919-0.63415-0.0818-1.2813-0.13474-1.9297-0.12362z"/>
   <path d="m35.148 255.58c-0.000881 0.008-0.0018 0.0146-0.0026 0.022-0.0026 0.0201-0.0042 0.04-0.0061 0.06-0.0068 0.0759-0.01304 0.15198-0.0182 0.22859-0.01863 0.27902-0.02617 0.56208-0.02617 0.84994 0.000076 0.94512 0.08523 1.9299 0.26521 2.9421 0.49307 2.7767 1.7508 5.7474 4.0185 8.1698 1.4492 1.5488 3.2181 2.9189 5.2781 3.8097 1.1542 0.49826 2.3937 0.81898 3.6571 0.93027 0.99941 0.0879 2.0088 0.0443 2.9963-0.1421 2.8516-0.55362 5.3028-2.1718 7.2237-4.0383 3.3325-3.2305 5.4734-7.2594 6.8977-10.445-1.7381 3.0308-4.1399 6.8931-7.4468 9.8617-1.9205 1.7193-4.2596 3.1992-6.8556 3.6597-0.79064 0.14487-1.5992 0.18901-2.4064 0.14166-1.2638-0.074-2.5181-0.37241-3.685-0.85746-1.924-0.79833-3.6248-2.0594-5.0639-3.4911-2.2233-2.2119-3.588-5.0053-4.2682-7.6729-0.24945-0.97942-0.41385-1.9395-0.49982-2.8733-0.02626-0.285-0.04497-0.56556-0.05365-0.84421-0.0026-0.0765-0.0042-0.15297-0.0042-0.22905-0.000086-0.0202-0.000172-0.0402 0-0.0604 0.000059-0.008 0.000215-0.0146 0.000447-0.022z"/>
   <path d="m37.547 256.08c0.0018 0.006 0.0034 0.0129 0.0051 0.0182 0.0042 0.0171 0.0086 0.0345 0.0133 0.0516 0.01751 0.0651 0.03604 0.12971 0.05502 0.19504 0.06883 0.23771 0.14449 0.47692 0.22662 0.71933 0.26498 0.78215 0.59018 1.5868 0.98235 2.4042 0.97677 2.0403 2.3959 4.2377 4.4926 5.8838 1.6585 1.2933 3.7605 2.0421 5.9313 2.0847 0.83502 0.0163 1.6712-0.0723 2.484-0.26964 5.486-1.3684 9.4692-5.9166 11.889-8.9844-2.7771 2.7729-7.0123 7.0026-12.088 8.1561-0.66468 0.15567-1.3467 0.23413-2.0308 0.23829-2.0637 0.0129-4.1015-0.64685-5.7207-1.8323-2.0213-1.47-3.518-3.527-4.6403-5.443-0.45197-0.77295-0.84661-1.5351-1.1912-2.2802-0.10706-0.23149-0.20868-0.4593-0.30424-0.68711-0.02626-0.0627-0.05218-0.12504-0.07714-0.18755-0.0068-0.0165-0.01304-0.033-0.01949-0.0494-0.0026-0.006-0.0042-0.0129-0.0068-0.0177z"/>
   <path d="m33.471 274.77c1.6162 1.8331 3.64 4.0949 5.6275 6.4293 0.70584 0.83716 1.4471 1.8677 2.4707 2.6694 0.78054 0.56488 1.6783 0.76938 2.4925 0.85964 1.3174 0.17474 2.6433 0.31719 3.9547 0.48587 0.41782 0.0536 0.83374 0.10995 1.248 0.17079 4.5152 0.65497 8.8669-0.21217 12.247-2.1469 1.4559-1.1593 2.7896-2.2561 3.9742-3.2687-1.3459 0.79636-2.8011 1.6928-4.3383 2.6721-3.4302 1.5152-7.4979 2.055-11.677 1.3976-0.33668-0.052-0.67325-0.10015-1.0098-0.14475-1.4222-0.18824-2.857-0.32016-4.2434-0.46336-0.75657-0.095-1.4479-0.18371-1.9172-0.54103-0.87041-0.5967-1.6366-1.5494-2.4525-2.3702-2.226-2.2518-4.4295-4.1917-6.3762-5.7497z"/>
  </g>
  <flowRoot style="word-spacing:0px;letter-spacing:0px" xml:space="preserve" transform="translate(25.682 132.9)" line-height="125%" font-size="40px" font-family="sans-serif" fill="#000000"><flowRegion><rect y="112" width="42" x="72" height="104"/></flowRegion><flowPara/></flowRoot>
  <g fill-rule="evenodd" fill="url(#outlinefill)">
   <path d="m94.321 181.95c-0.75751-1.5416-1.7064-2.9511-2.8187-4.1766-1.9294-1.4893-3.791-2.7926-5.4639-3.822 1.2641 1.5016 2.7914 3.1193 4.4982 4.7632 0.91465 1.251 1.7097 2.5852 2.4031 4.0134 1.773 3.6485 2.6578 7.4448 3.2564 10.743 0.46743-3.3195 0.07827-7.5421-1.8751-11.521z"/>
   <path d="m83.986 178.62c-1.1045-0.85553-2.2639-1.6227-3.4419-2.3138-4.6315-1.9533-9.0673-3.6314-12.83-4.8509 3.4266 1.9705 7.6023 4.1137 12.111 6.2159 1.1008 0.71027 2.1872 1.4619 3.2243 2.266 1.7806 1.3799 3.3728 2.881 4.6927 4.5912 2.3753 3.0564 3.434 6.5916 3.3539 9.8177 0.74941-3.1545 0.17702-7.1266-2.2172-10.643-1.3223-1.9304-2.9999-3.6162-4.8932-5.0834z"/>
   <path d="m71.139 175.5c-1.0694-1.4301-2.2227-2.7792-3.424-4.0467-3.6921-3.1906-7.2608-6.0676-10.371-8.3593 2.5923 2.8616 5.7894 6.0988 9.3074 9.4238 1.1102 1.2852 2.1925 2.612 3.2184 3.9861 1.2891 1.7259 2.4587 3.4857 3.4883 5.3111 2.1708 3.8508 3.4365 7.5051 3.862 11.097 0.29464-3.5946-0.54732-7.6576-2.5869-11.771-0.97295-1.963-2.1526-3.8457-3.4944-5.6409z"/>
   <path d="m83.122 179.58c-0.68123-1.4988-1.4916-2.9172-2.3901-4.2378-2.3178-2.6378-4.5903-5.0156-6.6282-6.9324 1.4805 2.3719 3.3431 5.0349 5.446 7.7854 0.76823 1.3195 1.4847 2.6839 2.1213 4.0928 0.55955 1.2373 1.0477 2.4873 1.4569 3.7569 1.132 3.4902 1.5365 6.7835 1.4973 9.7978 0.80495-2.8968 0.92-6.4581-0.05772-10.217-0.36081-1.3762-0.84797-2.7301-1.4456-4.0459z"/>
  </g>
 </g>
</svg>
